<svg width="32" height="32" viewBox="0 0 32 32" fill="none" xmlns="http://www.w3.org/2000/svg">
<mask id="path-1-inside-1" fill="white">
<path d="M16.0002 4C11.3559 4 7.59961 7.75625 7.59961 12.4006C7.59961 18.701 16.0002 28.0016 16.0002 28.0016C16.0002 28.0016 24.4007 18.701 24.4007 12.4006C24.4007 7.75625 20.6445 4 16.0002 4Z"/>
</mask>
<path d="M16.0002 28.0016L13.7739 30.0125L16.0002 32.4773L18.2265 30.0125L16.0002 28.0016ZM16.0002 1C9.69901 1 4.59961 6.0994 4.59961 12.4006H10.5996C10.5996 9.41311 13.0127 7 16.0002 7V1ZM4.59961 12.4006C4.59961 14.5827 5.30983 16.7929 6.17439 18.7228C7.05656 20.6919 8.20628 22.6013 9.313 24.2417C10.4255 25.8905 11.532 27.3224 12.3582 28.3405C12.7726 28.8511 13.1199 29.2616 13.3664 29.5478C13.4897 29.691 13.5881 29.8033 13.6574 29.8817C13.692 29.9209 13.7194 29.9516 13.7389 29.9735C13.7487 29.9845 13.7566 29.9933 13.7624 29.9998C13.7653 30.003 13.7678 30.0057 13.7697 30.0078C13.7706 30.0089 13.7715 30.0098 13.7722 30.0106C13.7725 30.011 13.7729 30.0114 13.7731 30.0116C13.7735 30.0121 13.7739 30.0125 16.0002 28.0016C18.2265 25.9908 18.2268 25.9911 18.227 25.9914C18.2271 25.9914 18.2273 25.9917 18.2274 25.9918C18.2276 25.992 18.2277 25.9921 18.2276 25.992C18.2275 25.9919 18.2269 25.9912 18.2257 25.9899C18.2235 25.9874 18.2193 25.9828 18.2132 25.9759C18.201 25.9623 18.1812 25.94 18.1543 25.9096C18.1005 25.8487 18.0184 25.755 17.912 25.6315C17.6992 25.3845 17.3901 25.0192 17.017 24.5594C16.2681 23.6367 15.2745 22.3497 14.2868 20.8858C13.2934 19.4134 12.3429 17.8164 11.65 16.2697C10.9395 14.6836 10.5996 13.3687 10.5996 12.4006H4.59961ZM16.0002 28.0016C18.2265 30.0125 18.2268 30.0121 18.2272 30.0116C18.2274 30.0114 18.2278 30.011 18.2282 30.0106C18.2289 30.0098 18.2297 30.0089 18.2307 30.0078C18.2326 30.0057 18.235 30.003 18.2379 29.9998C18.2438 29.9933 18.2516 29.9845 18.2614 29.9735C18.281 29.9516 18.3084 29.9209 18.343 29.8817C18.4122 29.8033 18.5106 29.691 18.634 29.5478C18.8805 29.2616 19.2277 28.8511 19.6421 28.3405C20.4683 27.3224 21.5749 25.8905 22.6874 24.2417C23.7941 22.6013 24.9438 20.6919 25.826 18.7228C26.6905 16.7929 27.4007 14.5827 27.4007 12.4006H21.4007C21.4007 13.3687 21.0609 14.6836 20.3503 16.2697C19.6574 17.8164 18.707 19.4134 17.7136 20.8858C16.7259 22.3497 15.7323 23.6367 14.9834 24.5594C14.6103 25.0192 14.3012 25.3845 14.0883 25.6315C13.982 25.755 13.8998 25.8487 13.846 25.9096C13.8191 25.94 13.7993 25.9623 13.7871 25.9759C13.781 25.9828 13.7768 25.9874 13.7746 25.9899C13.7735 25.9912 13.7729 25.9919 13.7727 25.992C13.7727 25.9921 13.7727 25.992 13.7729 25.9918C13.773 25.9917 13.7733 25.9914 13.7733 25.9914C13.7736 25.9911 13.7739 25.9908 16.0002 28.0016ZM27.4007 12.4006C27.4007 6.0994 22.3013 1 16.0002 1V7C18.9876 7 21.4007 9.41311 21.4007 12.4006H27.4007Z" fill="white" mask="url(#path-1-inside-1)"/>
<path d="M16.0002 15.4008C14.3441 15.4008 13 14.0567 13 12.4006C13 10.7445 14.3441 9.40039 16.0002 9.40039C17.6563 9.40039 19.0004 10.7445 19.0004 12.4006C19.0004 14.0567 17.6563 15.4008 16.0002 15.4008Z" fill="#01E6AB"/>
</svg>
