<svg width="29" height="28" viewBox="0 0 29 28" fill="none" xmlns="http://www.w3.org/2000/svg">
<rect x="1.75293" y="1.75" width="24.5" height="24.5" rx="8" fill="black"/>
<path d="M17.2842 5.25H10.7217C7.70184 5.25 5.25293 7.69891 5.25293 10.7188V17.2812C5.25293 20.3011 7.70184 22.75 10.7217 22.75H17.2842C20.304 22.75 22.7529 20.3011 22.7529 17.2812V10.7188C22.7529 7.69891 20.304 5.25 17.2842 5.25ZM21.1123 17.2812C21.1123 19.3922 19.3951 21.1094 17.2842 21.1094H10.7217C8.61074 21.1094 6.89355 19.3922 6.89355 17.2812V10.7188C6.89355 8.60781 8.61074 6.89062 10.7217 6.89062H17.2842C19.3951 6.89062 21.1123 8.60781 21.1123 10.7188V17.2812Z" fill="#01E6AB"/>
<path d="M14.0028 9.625C11.5868 9.625 9.62785 11.5839 9.62785 14C9.62785 16.4161 11.5868 18.375 14.0028 18.375C16.4189 18.375 18.3778 16.4161 18.3778 14C18.3778 11.5839 16.4189 9.625 14.0028 9.625ZM14.0028 16.7344C12.4957 16.7344 11.2685 15.5072 11.2685 14C11.2685 12.4917 12.4957 11.2656 14.0028 11.2656C15.51 11.2656 16.7372 12.4917 16.7372 14C16.7372 15.5072 15.51 16.7344 14.0028 16.7344Z" fill="#01E6AB"/>
<path d="M18.7061 9.88005C19.028 9.88005 19.289 9.61905 19.289 9.29708C19.289 8.97512 19.028 8.71411 18.7061 8.71411C18.3841 8.71411 18.1231 8.97512 18.1231 9.29708C18.1231 9.61905 18.3841 9.88005 18.7061 9.88005Z" fill="#01E6AB"/>
</svg>
