<svg width="29" height="28" viewBox="0 0 29 28" fill="none" xmlns="http://www.w3.org/2000/svg">
<rect x="1.75195" y="1.75" width="24.5" height="24.5" rx="8" fill="url(#paint0_linear)"/>
<path d="M17.2832 5.25H10.7207C7.70086 5.25 5.25195 7.69891 5.25195 10.7188V17.2812C5.25195 20.3011 7.70086 22.75 10.7207 22.75H17.2832C20.303 22.75 22.752 20.3011 22.752 17.2812V10.7188C22.752 7.69891 20.303 5.25 17.2832 5.25ZM21.1113 17.2812C21.1113 19.3922 19.3941 21.1094 17.2832 21.1094H10.7207C8.60977 21.1094 6.89258 19.3922 6.89258 17.2812V10.7188C6.89258 8.60781 8.60977 6.89062 10.7207 6.89062H17.2832C19.3941 6.89062 21.1113 8.60781 21.1113 10.7188V17.2812Z" fill="white"/>
<path d="M14.0019 9.625C11.5858 9.625 9.62687 11.5839 9.62687 14C9.62687 16.4161 11.5858 18.375 14.0019 18.375C16.418 18.375 18.3769 16.4161 18.3769 14C18.3769 11.5839 16.418 9.625 14.0019 9.625ZM14.0019 16.7344C12.4947 16.7344 11.2675 15.5072 11.2675 14C11.2675 12.4917 12.4947 11.2656 14.0019 11.2656C15.5091 11.2656 16.7362 12.4917 16.7362 14C16.7362 15.5072 15.5091 16.7344 14.0019 16.7344Z" fill="white"/>
<path d="M18.7051 9.88005C19.0271 9.88005 19.2881 9.61905 19.2881 9.29708C19.2881 8.97512 19.0271 8.71411 18.7051 8.71411C18.3831 8.71411 18.1221 8.97512 18.1221 9.29708C18.1221 9.61905 18.3831 9.88005 18.7051 9.88005Z" fill="white"/>
<defs>
<linearGradient id="paint0_linear" x1="35.4395" y1="11.7031" x2="-4.37305" y2="11.7031" gradientUnits="userSpaceOnUse">
<stop stop-color="#E50030"/>
<stop offset="1" stop-color="#C70088"/>
</linearGradient>
</defs>
</svg>
