<svg width="156" height="16" viewBox="0 0 156 16" fill="none" xmlns="http://www.w3.org/2000/svg">
<path d="M0.282905 13.6605H3.06966C3.22565 13.6605 3.35256 13.5335 3.35256 13.3775V2.80077H10.4067C10.5627 2.80077 10.6896 2.67385 10.6896 2.51784V0.288788C10.6896 0.13278 10.5627 0.00585938 10.4067 0.00585938H0.282905C0.126911 0.00585938 0 0.13278 0 0.288788V13.3775C0 13.5335 0.126911 13.6605 0.282905 13.6605Z" fill="white"/>
<path d="M23.0086 0.00268555H13.8102C13.6543 0.00268555 13.5273 0.129607 13.5273 0.285614V2.50938C13.5273 2.66539 13.6543 2.79231 13.8102 2.79231H21.7025C22.7363 2.79231 23.0483 3.12283 23.0483 4.15935V5.50525C23.0483 6.53913 22.7363 6.87229 21.7025 6.87229H17.9586H17.726H13.8102C13.6543 6.87229 13.5273 6.99921 13.5273 7.15522V13.3796C13.5273 13.5357 13.6543 13.6626 13.8102 13.6626H16.5996C16.7556 13.6626 16.8825 13.5357 16.8825 13.3796V9.36841H17.7233H17.956H23.0086C25.3882 9.36841 26.4035 8.3927 26.4035 5.97327V3.39783C26.4009 0.978392 25.3882 0.00268555 23.0086 0.00268555Z" fill="white"/>
<path d="M32.7171 0.171914L26.9189 13.2633C26.8369 13.451 26.9717 13.6599 27.178 13.6599H30.1022C30.2185 13.6599 30.3217 13.5885 30.364 13.4828L32.2861 8.64655H32.2835L34.5652 2.9113L36.8681 8.64655H35.139C35.0226 8.64655 34.9195 8.71794 34.8772 8.82371L34.1105 10.7566C34.0364 10.9417 34.1739 11.1427 34.3722 11.1427H37.8649L38.7903 13.4801C38.8326 13.5885 38.9384 13.6599 39.0521 13.6599H42.1508C42.3544 13.6599 42.4919 13.451 42.4099 13.2633L36.6302 0.171914C36.5852 0.0687902 36.4848 0.00268555 36.3711 0.00268555H32.9736C32.8625 0.00268555 32.762 0.0687902 32.7171 0.171914Z" fill="white"/>
<path d="M56.2162 6.55759C57.094 6.20592 57.5223 5.40737 57.5223 4.0985V2.92712C57.5223 0.899025 56.5863 0 54.5954 0H51.2455C51.0895 0 50.9626 0.126921 50.9626 0.282928V2.29251C50.9626 2.44852 51.0895 2.57544 51.2455 2.57544H53.0751C53.8948 2.57544 54.1671 2.86895 54.1671 3.66749V4.40787C54.1671 5.01074 53.678 5.49992 53.0751 5.49992H51.2455C51.0895 5.49992 50.9626 5.62684 50.9626 5.78285V7.46191C50.9626 7.61791 51.0895 7.74483 51.2455 7.74483H53.4638C54.0666 7.74483 54.5558 8.23401 54.5558 8.83689V9.98711C54.5558 10.7883 54.2834 11.0792 53.4638 11.0792H48.197V8.45877V7.74483V5.50521V2.57809V0.285573C48.197 0.129566 48.0701 0.00264476 47.9141 0.00264476H45.1247C44.9687 0.00264476 44.8418 0.129566 44.8418 0.285573V13.377C44.8418 13.533 44.9687 13.6599 45.1247 13.6599H54.9867C56.9777 13.6599 57.9136 12.7635 57.9136 10.7328V9.15419C57.9136 7.6708 57.3663 6.82995 56.2162 6.55759Z" fill="white"/>
<path d="M147.822 6.3963C146.788 6.3963 146.476 6.06577 146.476 5.0319V4.16725C146.476 3.13337 146.788 2.8002 147.822 2.8002L155.714 2.79755C155.87 2.79755 155.997 2.67063 155.997 2.51463V0.282928C155.997 0.126921 155.87 0 155.714 0H146.516C144.136 0 143.121 0.975707 143.121 3.39514V5.26723C143.121 7.49099 143.98 8.48521 145.95 8.64122L142.838 13.213C142.711 13.4008 142.846 13.6546 143.071 13.6546H146.053C146.148 13.6546 146.236 13.607 146.288 13.5277L149.366 8.89242H152.645V13.369C152.645 13.525 152.771 13.652 152.927 13.652H155.717C155.873 13.652 156 13.525 156 13.369V6.67923C156 6.52322 155.873 6.3963 155.717 6.3963H147.822Z" fill="white"/>
<path d="M83.111 13.6599H85.9004C86.0564 13.6599 86.1833 13.533 86.1833 13.377V5.7009C86.1833 5.54489 86.0564 5.41797 85.9004 5.41797H83.111C82.955 5.41797 82.8281 5.54489 82.8281 5.7009V13.377C82.8281 13.533 82.955 13.6599 83.111 13.6599Z" fill="white"/>
<path d="M78.1055 0.285614V2.51731C78.1055 2.67332 78.2324 2.80024 78.3884 2.80024H90.6194C90.7754 2.80024 90.9023 2.67332 90.9023 2.51731V0.285614C90.9023 0.129607 90.7754 0.00268555 90.6194 0.00268555H78.3884C78.2324 0.00268555 78.1055 0.129607 78.1055 0.285614Z" fill="white"/>
<path d="M120.836 0.00268555H118.047C117.891 0.00268555 117.764 0.129607 117.764 0.285614V7.73694C117.764 7.89295 117.891 8.01987 118.047 8.01987H120.836C120.992 8.01987 121.119 7.89295 121.119 7.73694V0.285614C121.119 0.129607 120.992 0.00268555 120.836 0.00268555Z" fill="white"/>
<path d="M111.209 10.6931V0.285614C111.209 0.129607 111.082 0.00268555 110.926 0.00268555H108.136C107.98 0.00268555 107.854 0.129607 107.854 0.285614V13.377C107.854 13.533 107.98 13.6599 108.136 13.6599H119.754V15.7171C119.754 15.8731 119.881 16 120.037 16H122.594C122.75 16 122.877 15.8731 122.877 15.7171V10.9761C122.877 10.8201 122.75 10.6931 122.594 10.6931H111.209Z" fill="white"/>
<path d="M75.1603 0.00268555H72.7226C72.6406 0.00268555 72.5639 0.0370598 72.5084 0.10052L65.026 8.70472V0.285614C65.026 0.129607 64.8991 0.00268555 64.7431 0.00268555H62.07C61.914 0.00268555 61.7871 0.129607 61.7871 0.285614V13.377C61.7871 13.533 61.914 13.6599 62.07 13.6599H64.3518C64.4337 13.6599 64.5104 13.6256 64.5659 13.5621L69.9543 7.3694L72.207 4.78867V9.10928V11.1982V13.377C72.207 13.533 72.3339 13.6599 72.4899 13.6599H75.163C75.319 13.6599 75.4459 13.533 75.4459 13.377V11.1982V6.04466V0.970459V0.589695V0.285614C75.4432 0.129607 75.3163 0.00268555 75.1603 0.00268555Z" fill="white"/>
<path d="M139.17 0.00268555H136.732C136.65 0.00268555 136.574 0.0370598 136.518 0.10052L129.036 8.70472V0.285614C129.036 0.129607 128.909 0.00268555 128.753 0.00268555H126.08C125.924 0.00268555 125.797 0.129607 125.797 0.285614V13.377C125.797 13.533 125.924 13.6599 126.08 13.6599H128.362C128.443 13.6599 128.52 13.6256 128.576 13.5621L133.964 7.3694L136.217 4.78867V9.10928V11.1982V13.377C136.217 13.533 136.344 13.6599 136.5 13.6599H139.173C139.329 13.6599 139.456 13.533 139.456 13.377V11.1982V6.04466V0.970459V0.589695V0.285614C139.453 0.129607 139.326 0.00268555 139.17 0.00268555Z" fill="white"/>
<path d="M96.1253 0.171914L90.3271 13.2633C90.2451 13.451 90.3799 13.6599 90.5862 13.6599H93.5104C93.6267 13.6599 93.7299 13.5885 93.7722 13.4828L95.6943 8.64655H95.6917L97.9734 2.9113L100.276 8.64655H98.5472C98.4308 8.64655 98.3277 8.71794 98.2854 8.82371L97.5187 10.7566C97.4446 10.9417 97.5821 11.1427 97.7804 11.1427H101.273L102.199 13.4801C102.241 13.5885 102.347 13.6599 102.46 13.6599H105.559C105.763 13.6599 105.9 13.451 105.818 13.2633L100.038 0.171914C99.9934 0.0687902 99.893 0.00268555 99.7793 0.00268555H96.3818C96.2707 0.00268555 96.1702 0.0687902 96.1253 0.171914Z" fill="white"/>
</svg>
